<svg version="1.1" id="Layer_1" xmlns="http://www.w3.org/2000/svg" xmlns:xlink="http://www.w3.org/1999/xlink" x="0px" y="0px"
	 width="100%" viewBox="0 0 1024 1024" enable-background="new 0 0 1024 1024" xml:space="preserve">
<path fill="#000000" opacity="1.000000" stroke="none" 
	d="
M562.000122,226.627548 
	C591.651367,226.479568 620.809814,225.887421 649.951111,226.357544 
	C666.418335,226.623169 682.951416,225.431076 699.372314,227.578705 
	C735.946960,232.362167 766.334290,248.931747 790.757690,276.343597 
	C808.095337,295.802673 819.091370,318.533539 823.624756,344.256714 
	C824.837219,351.136261 825.348999,358.109314 825.347168,365.122742 
	C825.337463,402.451965 825.351685,439.781311 825.439514,477.110413 
	C825.549561,523.923035 825.803467,570.735474 825.856689,617.548096 
	C825.873779,632.539551 826.425354,647.623352 825.024963,662.504211 
	C822.151367,693.039490 810.296143,719.990234 789.765442,743.007874 
	C766.717957,768.847168 737.574158,783.485535 703.810059,788.855469 
	C693.050232,790.566711 681.852295,790.114807 670.881897,789.775513 
	C653.216797,789.229187 635.559265,789.465698 617.900391,789.447998 
	C540.408936,789.370361 462.916992,789.291748 385.425812,789.470154 
	C357.214294,789.535156 331.951813,780.533081 309.205322,764.749268 
	C277.417328,742.691589 257.790039,712.253174 250.169495,674.197449 
	C248.326279,664.992798 248.197464,655.642029 248.178909,646.355286 
	C247.992737,553.199951 247.696136,460.043030 248.055161,366.888977 
	C248.246872,317.145386 271.695587,279.567841 311.738678,251.519821 
	C328.790680,239.575836 347.869293,232.419617 368.177765,228.392365 
	C374.047913,227.228302 379.998840,226.637634 386.019196,226.640503 
	C444.512817,226.668411 503.006439,226.640152 562.000122,226.627548 
M564.500000,376.287750 
	C524.176636,376.261017 483.853271,376.187042 443.530029,376.240997 
	C433.546143,376.254364 423.567841,376.026978 413.579498,377.085266 
	C384.230469,380.194885 357.928192,390.488770 336.037079,410.482208 
	C313.773865,430.815491 300.371185,455.647888 298.897705,486.458130 
	C298.156525,501.956116 298.679413,517.435669 298.200104,532.915161 
	C297.681458,549.663269 300.845551,565.693481 307.300995,581.123352 
	C307.950928,582.676880 309.374908,584.249756 308.064606,586.136353 
	C307.642303,586.136353 307.247131,586.258484 307.006439,586.117249 
	C304.839264,584.845581 303.149048,581.799011 300.073822,583.695679 
	C297.293823,585.410156 298.229340,588.502563 298.207001,591.045654 
	C298.036987,610.373291 297.951508,629.701904 297.910950,649.030334 
	C297.900116,654.188965 298.309540,659.306824 299.334229,664.407288 
	C309.150238,713.265625 349.310822,740.131531 388.681122,740.443726 
	C486.318604,741.217896 583.967041,740.856934 681.609863,740.563782 
	C708.801758,740.482178 732.385254,730.838440 750.896912,710.256348 
	C765.033386,694.538696 774.736755,676.194092 775.383179,655.166260 
	C776.800964,609.046631 775.769958,562.879333 774.930542,516.736023 
	C774.926880,516.531494 774.598999,516.332886 774.407837,516.114685 
	C774.160767,516.763489 773.930664,517.367676 773.509033,518.474670 
	C770.917053,509.281860 771.713867,500.326874 771.722534,491.462372 
	C771.760254,452.622253 754.043701,423.250763 723.246338,401.091980 
	C698.591370,383.352570 670.615173,376.083618 640.481995,376.193604 
	C615.488220,376.284851 590.494019,376.259583 564.500000,376.287750 
M752.081116,365.487030 
	C755.312439,370.552582 758.064819,375.873169 760.701843,381.268555 
	C761.862427,383.643219 763.324341,385.913239 764.929260,388.017365 
	C766.946899,390.662567 769.930603,391.517334 773.002014,390.595459 
	C775.822571,389.748871 775.449768,386.771545 775.570129,384.610809 
	C775.847656,379.626770 775.621948,374.617096 775.712708,369.619873 
	C776.060791,350.442657 770.094849,333.126892 759.367554,317.566650 
	C740.981079,290.896423 715.133362,276.735779 682.894653,276.390839 
	C626.071289,275.782776 569.236206,276.256409 512.406067,276.315308 
	C510.088257,276.317688 507.726685,276.492493 505.461060,276.956207 
	C496.897736,278.708984 494.069305,281.904480 494.148041,290.685333 
	C494.200928,296.576324 491.885132,300.867554 487.469788,304.462616 
	C484.763428,306.666290 482.283173,309.159119 479.794617,311.616486 
	C475.144165,316.208618 474.486725,320.809509 478.987793,325.634521 
	C484.535828,331.581879 490.563232,337.630096 498.580383,339.871216 
	C510.956146,343.330719 523.654724,345.373108 536.620789,343.373138 
	C549.101990,341.447937 561.679138,341.618347 573.722656,345.007446 
	C583.330566,347.711151 592.438538,347.864105 601.611877,344.698090 
	C614.612610,340.211090 627.832825,339.084595 641.490479,340.168091 
	C661.005798,341.716309 680.252686,349.370148 700.155701,343.011871 
	C700.611938,342.866119 701.152527,343.005859 701.649475,342.962585 
	C711.431946,342.110291 720.396729,345.457214 729.295349,348.678925 
	C738.225281,351.911987 745.627136,357.535492 752.081116,365.487030 
M385.388611,279.850525 
	C379.342438,278.415100 373.363190,277.815521 367.180237,279.549683 
	C345.353485,285.671539 327.900055,298.072571 314.208130,315.954163 
	C306.236481,326.365082 301.800720,338.312012 299.490448,351.096466 
	C298.201904,358.227051 301.874115,361.712036 309.115723,361.185669 
	C322.940735,360.180786 334.959198,364.137604 344.042175,375.124481 
	C346.537964,378.143463 349.729431,379.642670 353.314453,378.495789 
	C368.232697,373.723358 378.103149,363.291840 378.681610,346.411591 
	C378.932220,339.098938 381.192535,333.957153 386.834595,329.858124 
	C388.179108,328.881348 389.499512,327.839539 390.679993,326.674652 
	C394.718079,322.689880 394.742859,319.629395 390.940247,315.458221 
	C387.972351,312.202698 384.100403,310.171112 380.548859,307.709198 
	C377.271729,305.437500 376.508789,302.953278 378.663361,299.236511 
	C380.771240,295.600250 383.298828,292.360260 385.873962,289.091400 
	C388.065399,286.309631 389.374878,283.276154 385.388611,279.850525 
z"/>
<path fill="#000000" opacity="1.000000" stroke="none" 
	d="
M371.657562,435.187805 
	C372.093689,424.622559 377.114502,418.969574 385.416107,419.225616 
	C393.922943,419.487976 399.296967,425.671295 399.320892,435.435181 
	C399.367798,454.595520 399.337036,473.756073 399.334656,492.916534 
	C399.333710,500.676849 399.329254,500.682404 406.854401,500.669769 
	C416.684418,500.653259 426.514465,500.632843 436.344452,500.602844 
	C444.663635,500.577454 444.510010,500.529877 446.624847,492.509125 
	C456.220276,456.117126 480.437653,434.285767 516.444763,426.888702 
	C565.076294,416.898224 610.698608,447.410034 621.944519,495.840820 
	C622.817993,499.602631 624.201721,500.754669 627.812927,500.700256 
	C639.128601,500.529694 650.449768,500.473785 661.764771,500.642700 
	C665.554565,500.699249 666.368225,498.600464 666.401184,495.683411 
	C666.495300,487.355621 666.849182,479.004578 666.384399,470.702789 
	C665.665161,457.858337 666.684998,445.059814 666.769714,432.241180 
	C666.816589,425.147400 672.389282,419.857697 679.085815,419.614227 
	C687.241089,419.317749 693.239319,424.357758 694.240295,432.385590 
	C694.363403,433.372589 694.329285,434.382019 694.329529,435.381073 
	C694.341675,488.030487 694.367371,540.679932 694.341675,593.329346 
	C694.337158,602.585449 689.218445,608.062744 680.632812,608.309082 
	C672.948853,608.529480 666.904419,603.429626 666.730042,595.725037 
	C666.281677,575.915161 665.403992,556.096680 666.513794,536.282166 
	C666.967773,528.177185 667.079041,528.182312 659.007385,528.182251 
	C648.843994,528.182251 638.679626,528.268127 628.517822,528.141968 
	C624.711609,528.094788 622.940491,529.406799 622.214478,533.398804 
	C609.919250,601.002991 530.626160,625.856812 481.492035,589.678345 
	C462.495758,575.690979 450.632080,556.767639 445.795044,533.675171 
	C444.870148,529.259521 443.035400,528.052917 438.810547,528.147888 
	C427.652863,528.398560 416.482697,528.420776 405.324982,528.183594 
	C400.848541,528.088379 399.196686,529.356201 399.249939,534.093567 
	C399.474548,554.084473 399.387939,574.079834 399.287567,594.072937 
	C399.241943,603.157166 392.478577,609.179077 383.716888,608.245300 
	C376.455566,607.471313 371.679565,601.783142 371.667480,593.608459 
	C371.624176,564.284668 371.642426,534.960815 371.642639,505.636963 
	C371.642853,482.311890 371.650787,458.986816 371.657562,435.187805 
z"/>
<path fill="#000000" opacity="1.000000" stroke="none" 
	d="
M353.153687,454.690521 
	C363.470337,455.043457 368.334412,459.846252 368.347473,469.529510 
	C368.387024,498.820648 368.376678,528.111877 368.338440,557.403076 
	C368.326935,566.229065 362.893158,571.935669 354.688568,571.941711 
	C346.304321,571.947876 340.712128,566.145386 340.643890,557.227051 
	C340.582794,549.239075 340.448242,541.243286 340.730560,533.264526 
	C340.874786,529.189636 339.299408,527.948792 335.491638,528.178467 
	C331.843872,528.398560 328.169830,528.290771 324.510834,528.194885 
	C317.303009,528.006165 311.475739,522.174927 310.992676,514.773987 
	C310.534729,507.758057 315.700592,501.429657 322.950531,500.631714 
	C327.398743,500.142120 331.923523,500.007416 336.395355,500.184021 
	C339.789368,500.317963 340.742218,499.009552 340.702179,495.852203 
	C340.586182,486.700226 340.631134,477.545410 340.690613,468.392242 
	C340.744995,460.024536 344.190735,456.157288 353.153687,454.690521 
z"/>
<path fill="#000000" opacity="1.000000" stroke="none" 
	d="
M697.623047,525.999878 
	C697.630066,506.674438 697.619568,487.848969 697.652771,469.023560 
	C697.668762,459.970795 702.420410,454.748688 710.599121,454.673828 
	C719.608887,454.591370 725.275208,460.143951 725.331665,469.225708 
	C725.386597,478.055023 725.460205,486.886993 725.296326,495.713531 
	C725.227966,499.391541 726.326904,500.915588 730.228516,500.335968 
	C733.675537,499.823914 737.202271,499.914276 740.683167,500.526001 
	C747.986633,501.809509 753.179443,508.197174 752.726379,515.395996 
	C752.262878,522.761047 746.578796,528.033569 738.807739,528.304810 
	C738.474854,528.316406 738.141479,528.309814 737.808289,528.314514 
	C725.344666,528.491333 725.355957,528.491394 725.388184,541.203064 
	C725.402954,547.033691 725.500854,552.868896 725.315430,558.694153 
	C725.058716,566.757874 718.833679,572.276123 710.343384,572.220032 
	C702.959900,572.171265 697.660583,566.521423 697.620605,558.486450 
	C697.567444,547.824585 697.617676,537.162109 697.623047,525.999878 
z"/>
<path fill="#000000" opacity="1.000000" stroke="none" 
	d="
M721.340637,629.329163 
	C728.157166,624.103333 734.678955,619.085693 741.785767,613.618042 
	C741.785767,620.355408 742.113525,626.224243 741.703613,632.041077 
	C741.179260,639.480408 739.671570,646.805969 739.896851,654.361450 
	C740.085266,660.681763 732.470154,664.914185 726.294739,662.011963 
	C720.918396,659.485229 716.025024,656.108093 710.280701,654.111511 
	C704.823242,652.214722 706.122437,646.334229 705.292480,641.962402 
	C704.654175,638.600037 707.770813,637.661255 709.992981,636.299805 
	C713.675903,634.043396 717.361450,631.791321 721.340637,629.329163 
z"/>
<path fill="#000000" opacity="1.000000" stroke="none" 
	d="
M307.193909,626.604248 
	C306.797211,625.091431 306.407471,623.975647 306.296783,622.832825 
	C305.918640,618.929016 305.747040,614.945557 310.361572,613.282349 
	C313.949524,611.989136 319.662628,614.782410 321.125366,618.525208 
	C322.615082,622.336914 322.641510,626.058289 318.779266,628.694031 
	C315.218140,631.124329 310.348816,630.351807 307.193909,626.604248 
z"/>
</svg>